<svg width="10" height="10" viewBox="0 0 10 10" fill="none" xmlns="http://www.w3.org/2000/svg">
<path fill-rule="evenodd" clip-rule="evenodd" d="M2.5 2.98023e-08C2.22386 2.98023e-08 2 0.223858 2 0.5V1H1C0.447715 1 0 1.44772 0 2V9C0 9.55228 0.447715 10 1 10H9C9.55228 10 10 9.55228 10 9V2C10 1.44772 9.55229 1 9 1H8V0.5C8 0.223858 7.77614 2.98023e-08 7.5 2.98023e-08C7.22386 2.98023e-08 7 0.223858 7 0.5V1H3V0.5C3 0.223858 2.77614 2.98023e-08 2.5 2.98023e-08ZM9 3H1L1 9H9V3Z" fill="white" fill-opacity="0.6"/>
</svg>
